<mxfile host="app.diagrams.net" agent="Mozilla/5.0 (Windows NT 10.0; Win64; x64; rv:133.0) Gecko/20100101 Firefox/133.0" version="25.0.3">
  <diagram name="Página-1" id="SIykKE1Fh7aTZ4_XiMM0">
    <mxGraphModel dx="1246" dy="500" grid="1" gridSize="10" guides="1" tooltips="1" connect="1" arrows="1" fold="1" page="1" pageScale="1" pageWidth="827" pageHeight="1169" math="0" shadow="0">
      <root>
        <mxCell id="0" />
        <mxCell id="1" parent="0" />
        <mxCell id="3z10-94b0IdoFIeB1cZ--22" value="" style="rounded=0;whiteSpace=wrap;html=1;" parent="1" vertex="1">
          <mxGeometry x="360" y="160" width="440" height="160" as="geometry" />
        </mxCell>
        <mxCell id="3z10-94b0IdoFIeB1cZ--1" value="" style="rounded=0;whiteSpace=wrap;html=1;" parent="1" vertex="1">
          <mxGeometry x="400" y="220" width="120" height="60" as="geometry" />
        </mxCell>
        <mxCell id="3z10-94b0IdoFIeB1cZ--4" value="" style="endArrow=classic;startArrow=classic;html=1;rounded=0;" parent="1" edge="1">
          <mxGeometry width="50" height="50" relative="1" as="geometry">
            <mxPoint x="380" y="280" as="sourcePoint" />
            <mxPoint x="380" y="220" as="targetPoint" />
          </mxGeometry>
        </mxCell>
        <mxCell id="3z10-94b0IdoFIeB1cZ--5" value="&lt;div&gt;m&lt;/div&gt;" style="edgeLabel;html=1;align=center;verticalAlign=middle;resizable=0;points=[];" parent="3z10-94b0IdoFIeB1cZ--4" vertex="1" connectable="0">
          <mxGeometry x="0.0825" relative="1" as="geometry">
            <mxPoint as="offset" />
          </mxGeometry>
        </mxCell>
        <mxCell id="3z10-94b0IdoFIeB1cZ--6" value="" style="endArrow=classic;startArrow=classic;html=1;rounded=0;" parent="1" edge="1">
          <mxGeometry width="50" height="50" relative="1" as="geometry">
            <mxPoint x="400" y="300" as="sourcePoint" />
            <mxPoint x="520" y="300" as="targetPoint" />
          </mxGeometry>
        </mxCell>
        <mxCell id="3z10-94b0IdoFIeB1cZ--7" value="&amp;nbsp;n&amp;nbsp; " style="edgeLabel;html=1;align=center;verticalAlign=middle;resizable=0;points=[];" parent="3z10-94b0IdoFIeB1cZ--6" vertex="1" connectable="0">
          <mxGeometry x="0.1841" y="-2" relative="1" as="geometry">
            <mxPoint x="-11" as="offset" />
          </mxGeometry>
        </mxCell>
        <mxCell id="3z10-94b0IdoFIeB1cZ--14" value="" style="rounded=0;whiteSpace=wrap;html=1;" parent="1" vertex="1">
          <mxGeometry x="440" y="220" width="10" height="60" as="geometry" />
        </mxCell>
        <mxCell id="3z10-94b0IdoFIeB1cZ--15" value="" style="rounded=0;whiteSpace=wrap;html=1;" parent="1" vertex="1">
          <mxGeometry x="400" y="240" width="120" height="10" as="geometry" />
        </mxCell>
        <mxCell id="3z10-94b0IdoFIeB1cZ--16" value="" style="rounded=0;whiteSpace=wrap;html=1;fillColor=#f8cecc;strokeColor=#b85450;" parent="1" vertex="1">
          <mxGeometry x="440" y="240" width="10" height="10" as="geometry" />
        </mxCell>
        <mxCell id="3z10-94b0IdoFIeB1cZ--17" value="" style="endArrow=classic;html=1;rounded=0;" parent="1" edge="1">
          <mxGeometry width="50" height="50" relative="1" as="geometry">
            <mxPoint x="444.76" y="190" as="sourcePoint" />
            <mxPoint x="444.76" y="210" as="targetPoint" />
          </mxGeometry>
        </mxCell>
        <mxCell id="3z10-94b0IdoFIeB1cZ--19" value="j" style="edgeLabel;html=1;align=center;verticalAlign=middle;resizable=0;points=[];" parent="3z10-94b0IdoFIeB1cZ--17" vertex="1" connectable="0">
          <mxGeometry x="-0.581" y="1" relative="1" as="geometry">
            <mxPoint x="-1" y="-14" as="offset" />
          </mxGeometry>
        </mxCell>
        <mxCell id="3z10-94b0IdoFIeB1cZ--18" value="" style="endArrow=classic;html=1;rounded=0;" parent="1" edge="1">
          <mxGeometry width="50" height="50" relative="1" as="geometry">
            <mxPoint x="550" y="244.76" as="sourcePoint" />
            <mxPoint x="530" y="244.76" as="targetPoint" />
          </mxGeometry>
        </mxCell>
        <mxCell id="3z10-94b0IdoFIeB1cZ--20" value="i" style="edgeLabel;html=1;align=center;verticalAlign=middle;resizable=0;points=[];" parent="1" vertex="1" connectable="0">
          <mxGeometry x="560" y="249.99571428571429" as="geometry">
            <mxPoint x="1" y="-5" as="offset" />
          </mxGeometry>
        </mxCell>
        <mxCell id="3z10-94b0IdoFIeB1cZ--24" value="&lt;h1 style=&quot;margin-top: 0px;&quot;&gt;Vectorización&lt;/h1&gt;&lt;div&gt;&lt;b&gt;Dimensiones:&lt;/b&gt; m x n&lt;br&gt;&lt;/div&gt;&lt;p&gt;&lt;b&gt;Column major:&lt;/b&gt; M[ i ][ j ] = V[ j*m + i ]&lt;br&gt;&lt;/p&gt;&lt;p&gt;&lt;b&gt;Row major:&lt;/b&gt; M[ i ][ j ] = V[ i*n + j ]&lt;/p&gt;" style="text;html=1;whiteSpace=wrap;overflow=hidden;rounded=0;" parent="1" vertex="1">
          <mxGeometry x="580" y="180" width="220" height="120" as="geometry" />
        </mxCell>
      </root>
    </mxGraphModel>
  </diagram>
</mxfile>
